<?xml version="1.0" encoding="UTF-8" standalone="no"?> <svg xmlns="http://www.w3.org/2000/svg" width="74.733" height="74.418" viewBox="0 0 74.733 74.418">
  <g id="Group_890" data-name="Group 890" transform="translate(-652.304 -982.172)">
    <g id="Group_709" data-name="Group 709">
      <g id="Group_708" data-name="Group 708">
        <g id="Group_707" data-name="Group 707">
          <g id="Group_706" data-name="Group 706">
            <g id="Group_705" data-name="Group 705">
              <g id="Group_704" data-name="Group 704">
                <path id="Path_115" data-name="Path 115" d="M708.1,1056.59a20.51,20.51,0,0,1-9.416-2.041,21.734,21.734,0,0,0-18.035,0,22.736,22.736,0,0,1-18.83,0,19.4,19.4,0,0,0-9.017-1.959.5.5,0,0,1,0-1,20.5,20.5,0,0,1,9.415,2.041,21.732,21.732,0,0,0,18.034,0,22.738,22.738,0,0,1,18.831,0,21.736,21.736,0,0,0,18.036,0,20.511,20.511,0,0,1,9.417-2.041.5.5,0,0,1,0,1,19.409,19.409,0,0,0-9.019,1.959A20.528,20.528,0,0,1,708.1,1056.59Z"/>
              </g>
            </g>
          </g>
        </g>
      </g>
    </g>
    <g id="Group_769" data-name="Group 769">
      <g id="Group_742" data-name="Group 742">
        <g id="Group_715" data-name="Group 715">
          <g id="Group_714" data-name="Group 714">
            <g id="Group_713" data-name="Group 713">
              <g id="Group_712" data-name="Group 712">
                <g id="Group_711" data-name="Group 711">
                  <g id="Group_710" data-name="Group 710">
                    <path id="Path_116" data-name="Path 116" d="M686.788,990.511a36.358,36.358,0,0,1,4.047,5.086,35.1,35.1,0,0,1,2.713-2.832l.164-.152c-.451-6.026-1.916-10.441-3.652-10.441-1.512,0-2.815,3.341-3.426,8.177Z"/>
                  </g>
                </g>
              </g>
            </g>
          </g>
        </g>
        <g id="Group_721" data-name="Group 721">
          <g id="Group_720" data-name="Group 720">
            <g id="Group_719" data-name="Group 719">
              <g id="Group_718" data-name="Group 718">
                <g id="Group_717" data-name="Group 717">
                  <g id="Group_716" data-name="Group 716">
                    <path id="Path_117" data-name="Path 117" d="M690.024,1015.39a.289.289,0,0,1-.289-.289v-4.181a.289.289,0,0,1,.578,0v4.181A.29.29,0,0,1,690.024,1015.39Z"/>
                  </g>
                </g>
              </g>
            </g>
          </g>
        </g>
        <g id="Group_741" data-name="Group 741">
          <g id="Group_734" data-name="Group 734">
            <g id="Group_727" data-name="Group 727">
              <g id="Group_726" data-name="Group 726">
                <g id="Group_725" data-name="Group 725">
                  <g id="Group_724" data-name="Group 724">
                    <g id="Group_723" data-name="Group 723">
                      <g id="Group_722" data-name="Group 722">
                        <path id="Path_118" data-name="Path 118" d="M693.88,1005.22s-.637-6.47-8.275-13.918c0,0-1.7,20.19,4.668,20.19C690.272,1011.49,693.88,1011.59,693.88,1005.22Z"/>
                      </g>
                    </g>
                  </g>
                </g>
              </g>
            </g>
            <g id="Group_733" data-name="Group 733">
              <g id="Group_732" data-name="Group 732">
                <g id="Group_731" data-name="Group 731">
                  <g id="Group_730" data-name="Group 730">
                    <g id="Group_729" data-name="Group 729">
                      <g id="Group_728" data-name="Group 728">
                        <path id="Path_119" data-name="Path 119" d="M686.913,1005.94s.6-5.731,7.781-12.329c0,0,1.6,17.887-4.391,17.887C690.3,1011.49,686.913,1011.58,686.913,1005.94Z"/>
                      </g>
                    </g>
                  </g>
                </g>
              </g>
            </g>
          </g>
          <g id="Group_740" data-name="Group 740">
            <g id="Group_739" data-name="Group 739">
              <g id="Group_738" data-name="Group 738">
                <g id="Group_737" data-name="Group 737">
                  <g id="Group_736" data-name="Group 736">
                    <g id="Group_735" data-name="Group 735">
                      <path id="Path_120" data-name="Path 120" d="M690.015,1052.6a.577.577,0,0,1-.578-.576v-42.089a.577.577,0,0,1,1.154,0v42.089A.577.577,0,0,1,690.015,1052.6Z"/>
                    </g>
                  </g>
                </g>
              </g>
            </g>
          </g>
        </g>
      </g>
      <g id="Group_748" data-name="Group 748">
        <g id="Group_747" data-name="Group 747">
          <g id="Group_746" data-name="Group 746">
            <g id="Group_745" data-name="Group 745">
              <g id="Group_744" data-name="Group 744">
                <g id="Group_743" data-name="Group 743">
                  <path id="Path_121" data-name="Path 121" d="M667.491,1003.54s6.773-12.625,15.533,2.482c0,0,4.2,7.974,6.686,11,0,0-2.256-1.23-7.488-10.2,0,0-4.49-7.825-9.9-6.938A6.882,6.882,0,0,0,667.491,1003.54Z"/>
                </g>
              </g>
            </g>
          </g>
        </g>
      </g>
      <g id="Group_755" data-name="Group 755">
        <g id="Group_754" data-name="Group 754">
          <g id="Group_753" data-name="Group 753">
            <g id="Group_752" data-name="Group 752">
              <g id="Group_751" data-name="Group 751">
                <g id="Group_750" data-name="Group 750">
                  <g id="Group_749" data-name="Group 749">
                    <path id="Path_122" data-name="Path 122" d="M696.618,1006.39c-4.535,9.777-6.746,11.269-6.746,11.269,1.258,1.675,6.439-7.467,6.439-7.467,2.77-6.01,5.109-9.432,6.967-11.368C699.22,1000.68,696.618,1006.39,696.618,1006.39Z"/>
                  </g>
                </g>
              </g>
            </g>
          </g>
        </g>
      </g>
      <g id="Group_761" data-name="Group 761">
        <g id="Group_760" data-name="Group 760">
          <g id="Group_759" data-name="Group 759">
            <g id="Group_758" data-name="Group 758">
              <g id="Group_757" data-name="Group 757">
                <g id="Group_756" data-name="Group 756">
                  <path id="Path_123" data-name="Path 123" d="M698.772,1020.65a15.046,15.046,0,0,0-5.145,10.407c-1.058,10.329-3.6,12.382-3.6,12.382,1.016-3.781,2.543-12.777,2.543-12.777S693.147,1023.12,698.772,1020.65Z"/>
                </g>
              </g>
            </g>
          </g>
        </g>
      </g>
      <g id="Group_768" data-name="Group 768">
        <g id="Group_767" data-name="Group 767">
          <g id="Group_766" data-name="Group 766">
            <g id="Group_765" data-name="Group 765">
              <g id="Group_764" data-name="Group 764">
                <g id="Group_763" data-name="Group 763">
                  <g id="Group_762" data-name="Group 762">
                    <path id="Path_124" data-name="Path 124" d="M683.151,1021.39c4.533,9.777,6.746,11.269,6.746,11.269-1.26,1.675-6.441-7.467-6.441-7.467-2.768-6.01-5.107-9.432-6.965-11.368C680.548,1015.68,683.151,1021.39,683.151,1021.39Z"/>
                  </g>
                </g>
              </g>
            </g>
          </g>
        </g>
      </g>
    </g>
    <g id="Group_829" data-name="Group 829">
      <g id="Group_802" data-name="Group 802">
        <g id="Group_775" data-name="Group 775">
          <g id="Group_774" data-name="Group 774">
            <g id="Group_773" data-name="Group 773">
              <g id="Group_772" data-name="Group 772">
                <g id="Group_771" data-name="Group 771">
                  <g id="Group_770" data-name="Group 770">
                    <path id="Path_125" data-name="Path 125" d="M665.927,1015.59a23.336,23.336,0,0,1,2.608,3.277,22.293,22.293,0,0,1,1.749-1.825l.1-.1c-.292-3.885-1.235-6.729-2.355-6.729-.973,0-1.813,2.153-2.207,5.269Z"/>
                  </g>
                </g>
              </g>
            </g>
          </g>
        </g>
        <g id="Group_781" data-name="Group 781">
          <g id="Group_780" data-name="Group 780">
            <g id="Group_779" data-name="Group 779">
              <g id="Group_778" data-name="Group 778">
                <g id="Group_777" data-name="Group 777">
                  <g id="Group_776" data-name="Group 776">
                    <path id="Path_126" data-name="Path 126" d="M668.013,1031.62a.187.187,0,0,1-.188-.187v-2.694a.186.186,0,0,1,.373,0v2.694A.184.184,0,0,1,668.013,1031.62Z"/>
                  </g>
                </g>
              </g>
            </g>
          </g>
        </g>
        <g id="Group_801" data-name="Group 801">
          <g id="Group_794" data-name="Group 794">
            <g id="Group_787" data-name="Group 787">
              <g id="Group_786" data-name="Group 786">
                <g id="Group_785" data-name="Group 785">
                  <g id="Group_784" data-name="Group 784">
                    <g id="Group_783" data-name="Group 783">
                      <g id="Group_782" data-name="Group 782">
                        <path id="Path_127" data-name="Path 127" d="M670.5,1025.07s-.41-4.169-5.332-8.97c0,0-1.094,13.012,3.008,13.012C668.173,1029.11,670.5,1029.17,670.5,1025.07Z"/>
                      </g>
                    </g>
                  </g>
                </g>
              </g>
            </g>
            <g id="Group_793" data-name="Group 793">
              <g id="Group_792" data-name="Group 792">
                <g id="Group_791" data-name="Group 791">
                  <g id="Group_790" data-name="Group 790">
                    <g id="Group_789" data-name="Group 789">
                      <g id="Group_788" data-name="Group 788">
                        <path id="Path_128" data-name="Path 128" d="M666.007,1025.53s.387-3.693,5.016-7.945c0,0,1.027,11.526-2.83,11.526C668.192,1029.11,666.007,1029.17,666.007,1025.53Z"/>
                      </g>
                    </g>
                  </g>
                </g>
              </g>
            </g>
          </g>
          <g id="Group_800" data-name="Group 800">
            <g id="Group_799" data-name="Group 799">
              <g id="Group_798" data-name="Group 798">
                <g id="Group_797" data-name="Group 797">
                  <g id="Group_796" data-name="Group 796">
                    <g id="Group_795" data-name="Group 795">
                      <path id="Path_129" data-name="Path 129" d="M668.006,1055.6a.371.371,0,0,1-.372-.371V1028.1a.372.372,0,0,1,.744,0v27.124A.374.374,0,0,1,668.006,1055.6Z"/>
                    </g>
                  </g>
                </g>
              </g>
            </g>
          </g>
        </g>
      </g>
      <g id="Group_808" data-name="Group 808">
        <g id="Group_807" data-name="Group 807">
          <g id="Group_806" data-name="Group 806">
            <g id="Group_805" data-name="Group 805">
              <g id="Group_804" data-name="Group 804">
                <g id="Group_803" data-name="Group 803">
                  <path id="Path_130" data-name="Path 130" d="M653.491,1023.98s4.365-8.137,10.01,1.6a60.772,60.772,0,0,0,4.309,7.087s-1.453-.793-4.825-6.572c0,0-2.9-5.043-6.378-4.472A4.472,4.472,0,0,0,653.491,1023.98Z"/>
                </g>
              </g>
            </g>
          </g>
        </g>
      </g>
      <g id="Group_815" data-name="Group 815">
        <g id="Group_814" data-name="Group 814">
          <g id="Group_813" data-name="Group 813">
            <g id="Group_812" data-name="Group 812">
              <g id="Group_811" data-name="Group 811">
                <g id="Group_810" data-name="Group 810">
                  <g id="Group_809" data-name="Group 809">
                    <path id="Path_131" data-name="Path 131" d="M672.262,1025.82c-2.923,6.3-4.348,7.263-4.348,7.263.812,1.079,4.15-4.813,4.15-4.813a27.037,27.037,0,0,1,4.489-7.326C673.938,1022.14,672.262,1025.82,672.262,1025.82Z"/>
                  </g>
                </g>
              </g>
            </g>
          </g>
        </g>
      </g>
      <g id="Group_821" data-name="Group 821">
        <g id="Group_820" data-name="Group 820">
          <g id="Group_819" data-name="Group 819">
            <g id="Group_818" data-name="Group 818">
              <g id="Group_817" data-name="Group 817">
                <g id="Group_816" data-name="Group 816">
                  <path id="Path_132" data-name="Path 132" d="M682.353,1033.65s-4.366-8.136-10.011,1.6a60.772,60.772,0,0,1-4.309,7.087s1.455-.793,4.826-6.573c0,0,2.894-5.043,6.377-4.471A4.432,4.432,0,0,1,682.353,1033.65Z"/>
                </g>
              </g>
            </g>
          </g>
        </g>
      </g>
      <g id="Group_828" data-name="Group 828">
        <g id="Group_827" data-name="Group 827">
          <g id="Group_826" data-name="Group 826">
            <g id="Group_825" data-name="Group 825">
              <g id="Group_824" data-name="Group 824">
                <g id="Group_823" data-name="Group 823">
                  <g id="Group_822" data-name="Group 822">
                    <path id="Path_133" data-name="Path 133" d="M663.583,1035.49c2.922,6.3,4.348,7.262,4.348,7.262-.812,1.08-4.15-4.812-4.15-4.812a27.061,27.061,0,0,0-4.49-7.326C661.905,1031.81,663.583,1035.49,663.583,1035.49Z"/>
                  </g>
                </g>
              </g>
            </g>
          </g>
        </g>
      </g>
    </g>
    <g id="Group_889" data-name="Group 889">
      <g id="Group_862" data-name="Group 862">
        <g id="Group_835" data-name="Group 835">
          <g id="Group_834" data-name="Group 834">
            <g id="Group_833" data-name="Group 833">
              <g id="Group_832" data-name="Group 832">
                <g id="Group_831" data-name="Group 831">
                  <g id="Group_830" data-name="Group 830">
                    <path id="Path_134" data-name="Path 134" d="M713.917,1015.59a23.543,23.543,0,0,0-2.607,3.277,22.437,22.437,0,0,0-1.748-1.825l-.1-.1c.291-3.885,1.234-6.729,2.354-6.729.975,0,1.814,2.153,2.208,5.269Z"/>
                  </g>
                </g>
              </g>
            </g>
          </g>
        </g>
        <g id="Group_841" data-name="Group 841">
          <g id="Group_840" data-name="Group 840">
            <g id="Group_839" data-name="Group 839">
              <g id="Group_838" data-name="Group 838">
                <g id="Group_837" data-name="Group 837">
                  <g id="Group_836" data-name="Group 836">
                    <path id="Path_135" data-name="Path 135" d="M711.833,1031.62a.186.186,0,0,0,.186-.187v-2.694a.187.187,0,0,0-.374,0v2.694A.186.186,0,0,0,711.833,1031.62Z"/>
                  </g>
                </g>
              </g>
            </g>
          </g>
        </g>
        <g id="Group_861" data-name="Group 861">
          <g id="Group_854" data-name="Group 854">
            <g id="Group_847" data-name="Group 847">
              <g id="Group_846" data-name="Group 846">
                <g id="Group_845" data-name="Group 845">
                  <g id="Group_844" data-name="Group 844">
                    <g id="Group_843" data-name="Group 843">
                      <g id="Group_842" data-name="Group 842">
                        <path id="Path_136" data-name="Path 136" d="M709.348,1025.07s.411-4.169,5.333-8.97c0,0,1.093,13.012-3.009,13.012C711.672,1029.11,709.348,1029.17,709.348,1025.07Z"/>
                      </g>
                    </g>
                  </g>
                </g>
              </g>
            </g>
            <g id="Group_853" data-name="Group 853">
              <g id="Group_852" data-name="Group 852">
                <g id="Group_851" data-name="Group 851">
                  <g id="Group_850" data-name="Group 850">
                    <g id="Group_849" data-name="Group 849">
                      <g id="Group_848" data-name="Group 848">
                        <path id="Path_137" data-name="Path 137" d="M713.837,1025.53s-.385-3.693-5.014-7.945c0,0-1.029,11.526,2.828,11.526C711.651,1029.11,713.837,1029.17,713.837,1025.53Z"/>
                      </g>
                    </g>
                  </g>
                </g>
              </g>
            </g>
          </g>
          <g id="Group_860" data-name="Group 860">
            <g id="Group_859" data-name="Group 859">
              <g id="Group_858" data-name="Group 858">
                <g id="Group_857" data-name="Group 857">
                  <g id="Group_856" data-name="Group 856">
                    <g id="Group_855" data-name="Group 855">
                      <path id="Path_138" data-name="Path 138" d="M711.839,1055.6a.372.372,0,0,0,.372-.371V1028.1a.371.371,0,1,0-.743,0v27.124A.373.373,0,0,0,711.839,1055.6Z"/>
                    </g>
                  </g>
                </g>
              </g>
            </g>
          </g>
        </g>
      </g>
      <g id="Group_868" data-name="Group 868">
        <g id="Group_867" data-name="Group 867">
          <g id="Group_866" data-name="Group 866">
            <g id="Group_865" data-name="Group 865">
              <g id="Group_864" data-name="Group 864">
                <g id="Group_863" data-name="Group 863">
                  <path id="Path_139" data-name="Path 139" d="M726.354,1023.98s-4.366-8.137-10.011,1.6a60.914,60.914,0,0,1-4.309,7.087s1.454-.793,4.825-6.572c0,0,2.9-5.043,6.377-4.472A4.477,4.477,0,0,1,726.354,1023.98Z"/>
                </g>
              </g>
            </g>
          </g>
        </g>
      </g>
      <g id="Group_875" data-name="Group 875">
        <g id="Group_874" data-name="Group 874">
          <g id="Group_873" data-name="Group 873">
            <g id="Group_872" data-name="Group 872">
              <g id="Group_871" data-name="Group 871">
                <g id="Group_870" data-name="Group 870">
                  <g id="Group_869" data-name="Group 869">
                    <path id="Path_140" data-name="Path 140" d="M707.583,1025.82c2.922,6.3,4.348,7.263,4.348,7.263-.811,1.079-4.15-4.813-4.15-4.813a27.037,27.037,0,0,0-4.489-7.326C705.905,1022.14,707.583,1025.82,707.583,1025.82Z"/>
                  </g>
                </g>
              </g>
            </g>
          </g>
        </g>
      </g>
      <g id="Group_881" data-name="Group 881">
        <g id="Group_880" data-name="Group 880">
          <g id="Group_879" data-name="Group 879">
            <g id="Group_878" data-name="Group 878">
              <g id="Group_877" data-name="Group 877">
                <g id="Group_876" data-name="Group 876">
                  <path id="Path_141" data-name="Path 141" d="M697.491,1033.65s4.365-8.136,10.01,1.6a60.914,60.914,0,0,0,4.309,7.087s-1.453-.793-4.824-6.573c0,0-2.9-5.043-6.378-4.471A4.432,4.432,0,0,0,697.491,1033.65Z"/>
                </g>
              </g>
            </g>
          </g>
        </g>
      </g>
      <g id="Group_888" data-name="Group 888">
        <g id="Group_887" data-name="Group 887">
          <g id="Group_886" data-name="Group 886">
            <g id="Group_885" data-name="Group 885">
              <g id="Group_884" data-name="Group 884">
                <g id="Group_883" data-name="Group 883">
                  <g id="Group_882" data-name="Group 882">
                    <path id="Path_142" data-name="Path 142" d="M716.262,1035.49c-2.922,6.3-4.347,7.262-4.347,7.262.811,1.08,4.15-4.812,4.15-4.812a27.019,27.019,0,0,1,4.488-7.326C717.938,1031.81,716.262,1035.49,716.262,1035.49Z"/>
                  </g>
                </g>
              </g>
            </g>
          </g>
        </g>
      </g>
    </g>
  </g>
</svg>
